HIERARCHY
ROOT Root
{
  OFFSET 0.0 0.0 0.0
  CHANNELS 6 Xposition Yposition Zposition Zrotation Yrotation Xrotation
  JOINT Hips
  {
    OFFSET 0.0 100.0 0.0
    CHANNELS 6 Xposition Yposition Zposition Zrotation Yrotation Xrotation
    JOINT Spine1
    {
      OFFSET -0.013727 5.003763 -0.053727
      CHANNELS 3 Zrotation Yrotation Xrotation
      JOINT Spine2
      {
        OFFSET -0.0 7.125301 -0.029825
        CHANNELS 3 Zrotation Yrotation Xrotation
        JOINT Chest
        {
          OFFSET -1e-06 7.550063 -0.815971
          CHANNELS 3 Zrotation Yrotation Xrotation
          JOINT Neck1
          {
            OFFSET -0.181677 26.311295 -0.553348
            CHANNELS 3 Zrotation Yrotation Xrotation
            JOINT Neck2
            {
              OFFSET -3e-06 7.709397 2.302585
              CHANNELS 3 Zrotation Yrotation Xrotation
              JOINT Head
              {
                OFFSET -5e-06 6.128916 1.953709
                CHANNELS 3 Zrotation Yrotation Xrotation
                JOINT HeadEnd
                {
                  OFFSET 0.003598 16.065403 -1.835379
                  CHANNELS 3 Zrotation Yrotation Xrotation
                }
                JOINT Jaw
                {
                  OFFSET 0.002637 0.475592 3.094941
                  CHANNELS 3 Zrotation Yrotation Xrotation
                }
                JOINT LeftEye
                {
                  OFFSET 3.206381 5.380205 7.586883
                  CHANNELS 3 Zrotation Yrotation Xrotation
                }
                JOINT RightEye
                {
                  OFFSET -3.22244 5.361869 7.558234
                  CHANNELS 3 Zrotation Yrotation Xrotation
                }
              }
            }
          }
          JOINT LeftShoulder
          {
            OFFSET 1.621652 23.237164 5.113413
            CHANNELS 3 Zrotation Yrotation Xrotation
            JOINT LeftArm
            {
              OFFSET 14.919846 2e-06 -5.502326
              CHANNELS 3 Zrotation Yrotation Xrotation
              JOINT LeftForeArm
              {
                OFFSET 28.739307 0.0 -0.002588
                CHANNELS 3 Zrotation Yrotation Xrotation
                JOINT LeftHand
                {
                  OFFSET 27.093981 -1e-06 0.002609
                  CHANNELS 3 Zrotation Yrotation Xrotation
                  JOINT LeftHandThumb1
                  {
                    OFFSET 2.276482 -1.392045 3.191413
                    CHANNELS 3 Zrotation Yrotation Xrotation
                    JOINT LeftHandThumb2
                    {
                      OFFSET 4.012836 -1.828127 1.641654
                      CHANNELS 3 Zrotation Yrotation Xrotation
                      JOINT LeftHandThumb3
                      {
                        OFFSET 2.798515 0.0 -3e-06
                        CHANNELS 3 Zrotation Yrotation Xrotation
                        JOINT LeftHandThumbEnd
                        {
                          OFFSET 3.180793 -4e-06 4e-06
                          CHANNELS 3 Zrotation Yrotation Xrotation
                        }
                      }
                    }
                  }
                  JOINT LeftHandIndex1
                  {
                    OFFSET 3.247555 -0.531998 2.296169
                    CHANNELS 3 Zrotation Yrotation Xrotation
                    JOINT LeftHandIndex2
                    {
                      OFFSET 6.364578 0.01206 0.1786
                      CHANNELS 3 Zrotation Yrotation Xrotation
                      JOINT LeftHandIndex3
                      {
                        OFFSET 3.662364 0.0 0.0
                        CHANNELS 3 Zrotation Yrotation Xrotation
                        JOINT LeftHandIndex4
                        {
                          OFFSET 2.329242 4e-06 4e-06
                          CHANNELS 3 Zrotation Yrotation Xrotation
                          JOINT LeftHandIndexEnd
                          {
                            OFFSET 2.759615 -0.180537 -0.113024
                            CHANNELS 3 Zrotation Yrotation Xrotation
                          }
                        }
                      }
                    }
                  }
                  JOINT LeftHandMiddle1
                  {
                    OFFSET 3.163495 0.240981 1.000332
                    CHANNELS 3 Zrotation Yrotation Xrotation
                    JOINT LeftHandMiddle2
                    {
                      OFFSET 6.19078 -0.259278 -1.002548
                      CHANNELS 3 Zrotation Yrotation Xrotation
                      JOINT LeftHandMiddle3
                      {
                        OFFSET 4.35652 -4e-06 -1e-06
                        CHANNELS 3 Zrotation Yrotation Xrotation
                        JOINT LeftHandMiddle4
                        {
                          OFFSET 2.996877 -8e-06 0.0
                          CHANNELS 3 Zrotation Yrotation Xrotation
                          JOINT LeftHandMiddleEnd
                          {
                            OFFSET 2.304287 -0.294569 -0.031741
                            CHANNELS 3 Zrotation Yrotation Xrotation
                          }
                        }
                      }
                    }
                  }
                  JOINT LeftHandRing1
                  {
                    OFFSET 2.882643 -0.053652 -0.322543
                    CHANNELS 3 Zrotation Yrotation Xrotation
                    JOINT LeftHandRing2
                    {
                      OFFSET 5.854541 -0.486202 -1.373841
                      CHANNELS 3 Zrotation Yrotation Xrotation
                      JOINT LeftHandRing3
                      {
                        OFFSET 4.350578 0.0 3e-06
                        CHANNELS 3 Zrotation Yrotation Xrotation
                        JOINT LeftHandRing4
                        {
                          OFFSET 2.651321 7e-06 2e-06
                          CHANNELS 3 Zrotation Yrotation Xrotation
                          JOINT LeftHandRingEnd
                          {
                            OFFSET 1.936105 0.077687 -7.1e-05
                            CHANNELS 3 Zrotation Yrotation Xrotation
                          }
                        }
                      }
                    }
                  }
                  JOINT LeftHandPinky1
                  {
                    OFFSET 2.8655 -0.310005 -1.600378
                    CHANNELS 3 Zrotation Yrotation Xrotation
                    JOINT LeftHandPinky2
                    {
                      OFFSET 5.087849 -1.331141 -1.77123
                      CHANNELS 3 Zrotation Yrotation Xrotation
                      JOINT LeftHandPinky3
                      {
                        OFFSET 3.070974 4e-06 0.0
                        CHANNELS 3 Zrotation Yrotation Xrotation
                        JOINT LeftHandPinky4
                        {
                          OFFSET 1.549672 0.0 1e-06
                          CHANNELS 3 Zrotation Yrotation Xrotation
                          JOINT LeftHandPinkyEnd
                          {
                            OFFSET 1.944893 -0.157802 0.057219
                            CHANNELS 3 Zrotation Yrotation Xrotation
                          }
                        }
                      }
                    }
                  }
                }
              }
            }
          }
          JOINT RightShoulder
          {
            OFFSET -1.380118 23.180309 5.214158
            CHANNELS 3 Zrotation Yrotation Xrotation
            JOINT RightArm
            {
              OFFSET -15.037196 1.2e-05 -5.545604
              CHANNELS 3 Zrotation Yrotation Xrotation
              JOINT RightForeArm
              {
                OFFSET -28.736639 2e-06 -0.002597
                CHANNELS 3 Zrotation Yrotation Xrotation
                JOINT RightHand
                {
                  OFFSET -27.133619 -0.0 0.002613
                  CHANNELS 3 Zrotation Yrotation Xrotation
                  JOINT RightHandThumb1
                  {
                    OFFSET -2.274032 -1.383988 3.163127
                    CHANNELS 3 Zrotation Yrotation Xrotation
                    JOINT RightHandThumb2
                    {
                      OFFSET -4.011429 -1.827466 1.640914
                      CHANNELS 3 Zrotation Yrotation Xrotation
                      JOINT RightHandThumb3
                      {
                        OFFSET -2.794935 -4e-06 -3e-06
                        CHANNELS 3 Zrotation Yrotation Xrotation
                        JOINT RightHandThumbEnd
                        {
                          OFFSET -3.183852 4e-06 1e-06
                          CHANNELS 3 Zrotation Yrotation Xrotation
                        }
                      }
                    }
                  }
                  JOINT RightHandIndex1
                  {
                    OFFSET -3.253266 -0.520057 2.282866
                    CHANNELS 3 Zrotation Yrotation Xrotation
                    JOINT RightHandIndex2
                    {
                      OFFSET -6.341917 0.012471 0.178266
                      CHANNELS 3 Zrotation Yrotation Xrotation
                      JOINT RightHandIndex3
                      {
                        OFFSET -3.654871 -8e-06 -0.0
                        CHANNELS 3 Zrotation Yrotation Xrotation
                        JOINT RightHandIndex4
                        {
                          OFFSET -2.327586 0.0 1e-06
                          CHANNELS 3 Zrotation Yrotation Xrotation
                          JOINT RightHandIndexEnd
                          {
                            OFFSET -2.76179 -0.180656 -0.113078
                            CHANNELS 3 Zrotation Yrotation Xrotation
                          }
                        }
                      }
                    }
                  }
                  JOINT RightHandMiddle1
                  {
                    OFFSET -3.168106 0.246593 1.00103
                    CHANNELS 3 Zrotation Yrotation Xrotation
                    JOINT RightHandMiddle2
                    {
                      OFFSET -6.180828 -0.258836 -1.000895
                      CHANNELS 3 Zrotation Yrotation Xrotation
                      JOINT RightHandMiddle3
                      {
                        OFFSET -4.348901 0.0 -0.0
                        CHANNELS 3 Zrotation Yrotation Xrotation
                        JOINT RightHandMiddle4
                        {
                          OFFSET -3.00024 -4e-06 -2e-06
                          CHANNELS 3 Zrotation Yrotation Xrotation
                          JOINT RightHandMiddleEnd
                          {
                            OFFSET -2.30252 -0.29437 -0.031706
                            CHANNELS 3 Zrotation Yrotation Xrotation
                          }
                        }
                      }
                    }
                  }
                  JOINT RightHandRing1
                  {
                    OFFSET -2.88569 -0.067952 -0.308858
                    CHANNELS 3 Zrotation Yrotation Xrotation
                    JOINT RightHandRing2
                    {
                      OFFSET -5.854198 -0.48613 -1.373731
                      CHANNELS 3 Zrotation Yrotation Xrotation
                      JOINT RightHandRing3
                      {
                        OFFSET -4.33881 -4e-06 -0.0
                        CHANNELS 3 Zrotation Yrotation Xrotation
                        JOINT RightHandRing4
                        {
                          OFFSET -2.654903 -4e-06 4e-06
                          CHANNELS 3 Zrotation Yrotation Xrotation
                          JOINT RightHandRingEnd
                          {
                            OFFSET -1.933568 0.077527 -5.2e-05
                            CHANNELS 3 Zrotation Yrotation Xrotation
                          }
                        }
                      }
                    }
                  }
                  JOINT RightHandPinky1
                  {
                    OFFSET -2.866425 -0.342796 -1.584145
                    CHANNELS 3 Zrotation Yrotation Xrotation
                    JOINT RightHandPinky2
                    {
                      OFFSET -5.091371 -1.332055 -1.772385
                      CHANNELS 3 Zrotation Yrotation Xrotation
                      JOINT RightHandPinky3
                      {
                        OFFSET -3.062664 -4e-06 1e-06
                        CHANNELS 3 Zrotation Yrotation Xrotation
                        JOINT RightHandPinky4
                        {
                          OFFSET -1.546529 4e-06 -2e-06
                          CHANNELS 3 Zrotation Yrotation Xrotation
                          JOINT RightHandPinkyEnd
                          {
                            OFFSET -1.945119 -0.157718 0.057211
                            CHANNELS 3 Zrotation Yrotation Xrotation
                          }
                        }
                      }
                    }
                  }
                }
              }
            }
          }
        }
      }
    }
    JOINT LeftLeg
    {
      OFFSET 10.043214 -8.434526 2.595655
      CHANNELS 3 Zrotation Yrotation Xrotation
      JOINT LeftShin
      {
        OFFSET -1e-06 -43.221752 -0.802913
        CHANNELS 3 Zrotation Yrotation Xrotation
        JOINT LeftFoot
        {
          OFFSET 1e-06 -42.155094 -3.481523
          CHANNELS 3 Zrotation Yrotation Xrotation
          JOINT LeftToeBase
          {
            OFFSET 0.0 -5.059472 13.231529
            CHANNELS 3 Zrotation Yrotation Xrotation
            JOINT LeftToeEnd
            {
              OFFSET -0.009607 -1.647619 6.513017
              CHANNELS 3 Zrotation Yrotation Xrotation
            }
          }
        }
      }
    }
    JOINT RightLeg
    {
      OFFSET -10.047278 -8.29526 2.620317
      CHANNELS 3 Zrotation Yrotation Xrotation
      JOINT RightShin
      {
        OFFSET 1e-06 -43.362206 -0.805556
        CHANNELS 3 Zrotation Yrotation Xrotation
        JOINT RightFoot
        {
          OFFSET 2e-06 -42.117393 -3.478398
          CHANNELS 3 Zrotation Yrotation Xrotation
          JOINT RightToeBase
          {
            OFFSET -0.0 -5.079609 13.284196
            CHANNELS 3 Zrotation Yrotation Xrotation
            JOINT RightToeEnd
            {
              OFFSET 0.009532 -1.634378 6.460591
              CHANNELS 3 Zrotation Yrotation Xrotation
            }
          }
        }
      }
    }
  }
}
MOTION
Frames: 4
Frame Time: 0.03333333333333333
0.0 0.0 0.0 0.0 -0.0 0.0 -1.140061 95.440559 -3.834092 -2.616672 -0.345664 8.775312 2.388141 0.516276 4.083703 0.07253 0.138621 -4.226583 2.506541 -1.806 9.853518 0.631684 2.1842 -3.65108 -1.768689 -1.565627 -3.508554 -1.843655 -2.468518 -16.601187 7.7e-05 -2.2e-05 6e-06 -0.030607 -0.101144 -0.033977 0.554723 -3.823983 -10.564643 -0.624915 3.636739 -10.659254 -3.54765 -1.220621 21.98995 -64.069504 9.804028 7.371179 -175.738358 -58.042381 175.999237 -10.417323 -10.413559 -10.746054 -5.882106 9.861288 0.70259 -10.93687 -0.360575 7.156209 0.0 8.774826 -2e-06 -16.667278 18.322239 6.342106 -1.844033 2.498505 -2.507278 -10.163603 4.678947 4.621109 -20.976028 -2e-06 3e-06 -21.226292 2.4517 -3.594002 0.0 -6e-06 0.0 -1.36268 2.240799 -0.746324 -21.334921 0.584912 3.008325 -13.821218 -1e-06 2e-06 -23.887175 -0.249076 -0.839484 -62.26326 2.515346 -1.240494 -0.294024 1.679687 0.833256 -14.21821 0.093216 1.300582 -34.212051 -0.287559 0.96717 -20.033215 0.964539 1.212843 -1e-06 -0.0 -1e-06 -3.440388 0.788234 0.501656 -15.928189 -3.167308 2.999709 -6.338827 -0.0 1e-06 -18.123451 3.648187 -4.905673 -4e-06 -0.0 -2e-06 7.441638 9.781975 21.03591 61.709427 3.875659 -3.96382 174.975494 58.722252 175.259827 -8.759438 3.350305 0.559515 2.243542 -5.255038 -3.180158 14.282891 -0.826595 6.9525 0.0 -12.690608 -0.0 16.010696 -17.981014 3.007819 1.665666 -1.955922 -2.878298 4.727798 -4.170588 4.993922 11.020528 2e-06 -3e-06 12.109053 -3.735718 -2.866787 0.0 1e-06 -0.0 1.291986 -1.92855 -1.49809 14.800125 0.567468 3.865605 14.242569 -1.341739 -6.660659 19.63196 0.143926 -0.648247 50.231682 -0.689279 -6.114789 0.353029 -1.511151 -0.03194 20.222788 3.684309 2.316629 18.78727 4e-06 -3e-06 10.751625 -0.479868 1.397905 -1e-06 1e-06 0.0 3.273807 0.305947 -0.580111 21.486809 11.830376 2.266132 8.162925 1e-06 -2e-06 18.399076 -3.798985 -4.940578 3e-06 -0.0 -1e-06 5.548747 -0.16344 -26.866461 0.11074 -0.313862 78.605919 1.055506 3.380193 2.447988 1.968981 -2.115816 -5.907313 0.0 -0.0 5e-06 6.386252 -1.670487 -15.332877 -0.124934 -0.165653 34.937767 -2.188186 1.516677 -20.304844 -1.456247 0.87365 -3.849581 -0.0 0.0 -1e-06 
0.0 0.0 0.0 0.0 -0.0 0.0 -1.171992 97.639778 0.490774 -0.761263 -0.578447 9.633996 1.704736 0.793125 3.349718 -0.11083 1.412493 -4.337024 1.231931 -0.756485 8.808901 -0.324011 2.62855 -3.324208 -2.052124 -1.879473 -3.554744 -1.05679 -3.386466 -16.075203 7.7e-05 -2.2e-05 6e-06 -0.043201 -0.058991 -0.023384 0.589159 -3.770785 -10.583674 -0.686833 3.658887 -10.640041 -3.455155 0.598665 21.782707 -64.014938 14.857951 8.749311 -176.967224 -52.887501 177.746613 -10.252627 -12.294993 -12.23152 -5.882108 9.861287 0.702591 -10.936875 -0.360575 7.156209 0.0 8.774827 -2e-06 -16.466429 18.18276 6.026718 -1.844033 2.498505 -2.507278 -10.163603 4.678946 4.62111 -20.976027 -4e-06 3e-06 -21.226292 2.451697 -3.594001 0.0 -6e-06 1e-06 -1.362682 2.240798 -0.746324 -21.334919 0.584909 3.008325 -13.821218 -3e-06 3e-06 -23.887178 -0.249078 -0.839482 -61.588047 2.428546 -1.179465 -0.294025 1.679688 0.833256 -14.218212 0.093214 1.300581 -34.212063 -0.287563 0.967172 -20.03322 0.964537 1.212845 -0.0 -0.0 0.0 -3.440389 0.788233 0.501656 -15.928189 -3.167311 2.999709 -6.338827 -1e-06 1e-06 -18.123447 3.648184 -4.905672 -5e-06 0.0 -2e-06 3.275277 10.632651 20.087185 61.597919 5.75274 -4.404134 177.667465 51.550289 177.801819 -8.939691 3.224957 -2.622571 2.243542 -5.255036 -3.180157 14.282887 -0.826595 6.9525 -2e-06 -12.690601 1e-06 15.97005 -17.723894 3.139512 1.665666 -1.955921 -2.878298 4.727798 -4.170587 4.993924 11.020524 3e-06 -2e-06 12.10905 -3.735716 -2.866784 2e-06 0.0 -0.0 1.291986 -1.928549 -1.498089 14.800129 0.567468 3.865607 14.242568 -1.341737 -6.660657 19.631962 0.143925 -0.648245 50.692707 -0.792827 -5.915594 0.353029 -1.51115 -0.03194 20.222788 3.684309 2.31663 18.78727 4e-06 -1e-06 10.751627 -0.479869 1.397905 0.0 0.0 1e-06 3.273806 0.305946 -0.58011 21.486813 11.830376 2.266134 8.162928 2e-06 0.0 18.39908 -3.798986 -4.940575 3e-06 -1e-06 -2e-06 2.076638 0.633636 -30.465332 0.017008 -0.156752 70.512856 1.952711 3.487336 1.033482 1.852142 -2.030288 -6.141421 -0.0 0.0 0.0 4.084354 -1.967388 -7.207085 -0.071896 -0.134742 27.359871 -1.409437 1.299702 -12.498338 -1.465017 0.8883 -10.261755 -0.0 -0.0 -1e-06 
0.0 0.0 0.0 0.0 -0.0 0.0 -1.16258 100.18721 10.082744 0.961799 -0.282271 10.632887 0.928192 0.967453 2.135619 -0.351201 2.528384 -4.615092 0.140192 0.116502 7.923644 -1.413727 3.111428 -2.495803 -2.091672 -2.193022 -3.641311 -0.279744 -3.998542 -14.60778 7.7e-05 -2.3e-05 6e-06 -0.02845 0.012056 -0.022097 0.598105 -3.690293 -10.577274 -0.667378 3.714821 -10.625064 -3.68494 1.85896 21.693369 -63.722973 18.230448 9.217155 -177.499832 -50.629196 178.769714 -9.939477 -12.979571 -12.170112 -5.882106 9.861284 0.70259 -10.936871 -0.360576 7.156206 -1e-06 8.774826 -2e-06 -16.603338 18.486448 5.771464 -1.844031 2.498505 -2.507277 -10.163599 4.678944 4.621108 -20.976023 -4e-06 3e-06 -21.226286 2.451695 -3.593999 0.0 -6e-06 -0.0 -1.362681 2.240798 -0.746324 -21.334913 0.584908 3.008323 -13.821213 -4e-06 3e-06 -23.887167 -0.249079 -0.839482 -61.714283 2.378947 -1.386516 -0.294026 1.679687 0.833256 -14.218209 0.093213 1.300581 -34.212051 -0.287564 0.967172 -20.033215 0.964536 1.212845 -0.0 -0.0 -0.0 -3.440388 0.788233 0.501655 -15.928187 -3.16731 2.999707 -6.338826 -2e-06 1e-06 -18.123449 3.648182 -4.90567 -5e-06 0.0 -2e-06 0.052471 11.589482 19.507093 61.039516 6.417462 -4.370147 178.64209 46.499294 179.044662 -7.80529 2.684222 -4.239369 2.243543 -5.255037 -3.180158 14.282891 -0.826595 6.952502 -3e-06 -12.690607 -0.0 15.689306 -17.803869 3.256935 1.665667 -1.955923 -2.878299 4.727801 -4.170586 4.993924 11.020528 4e-06 -1e-06 12.109056 -3.735716 -2.866786 -0.0 -0.0 0.0 1.291986 -1.92855 -1.498089 14.800129 0.567468 3.865606 14.242576 -1.341736 -6.660659 19.631969 0.143926 -0.648248 51.068523 -0.929727 -5.805474 0.35303 -1.511152 -0.031941 20.222794 3.68431 2.316628 18.787271 5e-06 -2e-06 10.751629 -0.479868 1.397905 0.0 0.0 0.0 3.273808 0.305947 -0.58011 21.486818 11.830376 2.266134 8.162926 2e-06 -2e-06 18.399086 -3.798984 -4.940579 4e-06 0.0 -2e-06 -1.499376 1.185961 -32.023296 0.032194 -0.093764 56.129257 1.607911 3.316877 0.873343 1.811284 -2.024502 -6.120499 -0.0 0.0 2e-06 2.046213 -2.914584 0.486299 0.00719 -0.205488 18.978119 -0.714369 1.473115 -0.324884 -1.463435 0.789556 -19.219908 0.0 0.0 -1e-06 
0.0 0.0 0.0 0.0 -0.0 0.0 -1.349035 102.267982 19.452246 1.491696 0.338557 11.760153 0.709824 0.996393 0.722286 -0.493898 3.252277 -5.055351 -0.61135 0.902385 7.319576 -2.10057 3.234751 -1.85849 -1.971508 -2.126584 -3.683565 0.40939 -4.223507 -13.027641 7.7e-05 -2.3e-05 6e-06 -0.008605 0.095139 -0.019845 0.624631 -3.608478 -10.583226 -0.653597 3.796431 -10.630265 -3.321043 2.728823 21.99111 -64.099609 20.096266 9.340405 -177.962936 -50.164165 179.373657 -9.951642 -13.181253 -11.250929 -5.882105 9.861288 0.702591 -10.936872 -0.360577 7.156209 -1e-06 8.774829 -1e-06 -16.45698 18.712372 5.701604 -1.844033 2.498505 -2.507278 -10.163601 4.678946 4.62111 -20.976023 -4e-06 2e-06 -21.226286 2.451697 -3.594 0.0 -6e-06 1e-06 -1.362682 2.240798 -0.746324 -21.334915 0.584909 3.008325 -13.821217 -3e-06 2e-06 -23.887171 -0.249079 -0.839482 -61.612686 2.462371 -1.536613 -0.294025 1.679688 0.833256 -14.218208 0.093214 1.300581 -34.212048 -0.287564 0.967171 -20.033213 0.964537 1.212844 -0.0 -0.0 0.0 -3.440389 0.788234 0.501656 -15.928185 -3.167311 2.999709 -6.338824 -1e-06 1e-06 -18.123446 3.648185 -4.905671 -5e-06 -0.0 -2e-06 -2.437958 12.032016 18.908976 60.624268 5.746169 -3.368702 178.894073 43.813686 179.623657 -5.658767 1.992857 -3.44164 2.243543 -5.255039 -3.180159 14.282894 -0.826596 6.952507 2e-06 -12.69061 -1e-06 15.692329 -17.817953 3.222792 1.665668 -1.955922 -2.878299 4.727801 -4.170588 4.993928 11.020529 3e-06 -2e-06 12.109055 -3.735718 -2.866784 0.0 1e-06 -1e-06 1.291985 -1.928551 -1.49809 14.800131 0.567468 3.865611 14.242577 -1.341739 -6.660661 19.631973 0.143924 -0.648245 51.156876 -0.914502 -5.862763 0.353028 -1.511151 -0.031941 20.222797 3.684309 2.316634 18.787275 1e-06 0.0 10.751631 -0.479871 1.397907 0.0 0.0 -0.0 3.273808 0.305946 -0.58011 21.486822 11.830379 2.266137 8.16293 1e-06 -0.0 18.39909 -3.798991 -4.940578 3e-06 0.0 -0.0 -3.872639 2.255486 -31.442883 0.140924 -0.044708 37.259384 -1.15486 1.570925 2.813974 1.791368 -2.04709 -6.02983 -0.0 -0.0 2e-06 1.509737 -3.096323 6.588544 0.035964 -0.265523 11.586861 0.230366 0.932599 13.124418 -1.451334 0.728493 -23.016264 -0.0 0.0 -1e-06 
